<?xml version="1.0" standalone="no"?>
<!DOCTYPE svg PUBLIC "-//W3C//DTD SVG 20010904//EN"
 "http://www.w3.org/TR/2001/REC-SVG-20010904/DTD/svg10.dtd">
<svg version="1.0" xmlns="http://www.w3.org/2000/svg"
 width="170.000000pt" height="170.000000pt" viewBox="0 0 170.000000 170.000000"
 preserveAspectRatio="xMidYMid meet">
<metadata>
Created by potrace 1.14, written by Peter Selinger 2001-2017
</metadata>
<g transform="translate(0.000000,170.000000) scale(0.100000,-0.100000)"
fill="#000000" stroke="none">
<path d="M825 1523 c-5 -10 -7 -22 -6 -26 0 -4 -6 -10 -14 -13 -8 -3 -12 -10
-9 -15 3 -5 1 -9 -5 -9 -6 0 -8 -6 -5 -14 3 -7 -2 -16 -11 -20 -9 -3 -13 -10
-10 -16 3 -5 2 -10 -3 -10 -6 0 -13 -11 -16 -25 -4 -14 -10 -24 -14 -21 -4 2
-9 -4 -9 -15 -1 -11 -12 -29 -25 -40 -13 -11 -17 -18 -10 -14 19 10 14 -9 -7
-25 -11 -7 -18 -17 -15 -22 3 -4 0 -8 -5 -8 -6 0 -11 -9 -11 -20 0 -11 -5 -20
-12 -20 -6 0 -9 -3 -6 -6 4 -3 -2 -14 -13 -25 -11 -11 -17 -24 -14 -29 4 -6 1
-10 -4 -10 -6 0 -11 -7 -11 -15 0 -8 -5 -15 -11 -15 -5 0 -7 -4 -4 -10 3 -5 1
-10 -5 -10 -6 0 -8 -4 -5 -10 3 -5 1 -10 -4 -10 -6 0 -11 -7 -11 -15 0 -8 -5
-15 -11 -15 -5 0 -8 -4 -4 -9 3 -6 0 -13 -7 -18 -7 -4 -19 -19 -26 -32 -10
-17 -10 -21 -1 -16 8 5 10 4 5 -3 -4 -7 -14 -12 -21 -12 -9 0 -12 -6 -9 -15 4
-8 1 -15 -5 -15 -6 0 -11 -9 -11 -19 0 -11 -5 -23 -12 -27 -7 -5 -8 -3 -3 6 5
8 4 11 -3 7 -5 -4 -8 -17 -4 -29 3 -14 2 -19 -6 -14 -11 6 -16 -6 -13 -26 0
-5 -6 -8 -15 -8 -14 0 -15 -2 -3 -17 12 -15 12 -16 -4 -10 -10 4 -16 3 -12 -2
3 -5 0 -13 -6 -17 -8 -4 -7 -9 2 -15 11 -7 10 -9 -3 -9 -10 0 -18 -5 -18 -11
0 -7 -8 -18 -17 -26 -10 -8 -12 -11 -5 -8 11 6 11 3 0 -14 -7 -12 -16 -21 -20
-21 -4 0 -5 -7 -1 -15 3 -10 0 -15 -8 -13 -8 2 -14 -4 -14 -12 0 -8 -6 -20
-14 -26 -8 -6 -16 -22 -18 -35 -2 -12 -11 -31 -19 -40 -9 -10 -13 -22 -9 -28
3 -7 0 -8 -9 -5 -11 4 -16 0 -16 -14 0 -11 -7 -22 -15 -26 -8 -3 -12 -12 -9
-21 3 -8 1 -15 -5 -15 -6 0 -11 -7 -11 -15 0 -8 -5 -15 -11 -15 -5 0 -7 -5 -4
-10 3 -6 -1 -13 -9 -16 -9 -3 -13 -10 -10 -15 8 -14 -16 -40 -29 -32 -6 3 -7
1 -3 -5 6 -11 -11 -51 -27 -63 -7 -5 -10 -13 -16 -49 -1 -3 -6 2 -11 10 -7 11
-9 7 -7 -15 2 -28 4 -30 55 -31 28 -1 50 1 47 5 -2 4 2 8 10 8 8 0 12 -3 10
-7 -2 -3 7 -6 21 -6 13 0 24 6 24 13 0 7 4 13 10 13 5 0 7 -6 5 -12 -3 -8 4
-14 20 -14 14 -1 23 2 20 6 -3 5 0 12 6 16 7 4 9 3 5 -4 -3 -6 -2 -13 4 -17 5
-3 10 1 10 9 0 9 4 16 10 16 5 0 6 -8 3 -17 -6 -16 -5 -16 10 -4 9 7 17 9 17
4 0 -15 43 -10 56 6 9 12 13 11 22 -5 6 -10 12 -13 12 -6 0 6 12 12 26 12 14
0 23 -4 20 -8 -8 -14 40 -8 58 7 14 12 16 12 11 -1 -4 -10 2 -14 19 -14 14 0
24 5 23 10 -1 6 4 10 10 9 7 -2 12 0 12 5 -3 20 2 32 13 26 7 -4 8 -3 4 4 -7
12 11 50 33 68 8 6 11 18 8 28 -4 9 -3 15 2 12 8 -5 23 17 25 37 1 4 6 11 11
15 6 4 16 18 23 31 11 19 11 22 0 16 -7 -3 -5 0 6 9 10 8 15 20 11 26 -4 6 -1
9 7 8 7 -2 12 3 10 10 -1 7 5 15 14 19 13 5 13 7 2 14 -10 7 -10 9 0 9 6 0 12
7 12 15 0 8 9 20 20 27 11 7 20 16 20 21 0 4 -4 5 -10 2 -5 -3 0 9 13 28 12
19 26 32 31 29 5 -3 6 0 2 6 -3 6 -2 13 4 17 6 4 8 11 5 16 -4 5 1 12 10 15 9
4 14 13 11 21 -3 7 1 16 9 19 8 4 12 10 9 15 -3 5 0 9 6 9 7 0 10 6 7 14 -6
15 25 50 36 41 4 -3 3 0 -3 7 -6 8 -3 17 12 30 12 10 18 18 14 18 -3 0 1 11
10 25 13 20 19 22 34 13 10 -7 16 -16 14 -20 -3 -4 -2 -8 3 -8 4 0 16 -13 25
-29 12 -22 13 -31 5 -35 -7 -2 -6 -5 3 -5 9 -1 21 -15 27 -32 8 -20 16 -28 24
-23 9 5 10 2 6 -9 -3 -9 -2 -19 4 -22 5 -4 7 -10 4 -15 -3 -5 0 -12 6 -16 8
-4 9 -3 5 4 -4 7 -5 12 -2 12 3 0 10 -10 17 -21 9 -17 8 -20 -3 -14 -7 3 -6 1
3 -7 18 -15 54 -79 51 -90 -1 -5 3 -8 8 -8 6 0 10 -5 10 -11 0 -7 8 -18 18
-26 9 -8 12 -12 5 -9 -8 5 -8 0 0 -19 7 -14 18 -25 25 -25 7 0 11 -4 8 -9 -3
-4 3 -16 14 -26 11 -10 17 -22 13 -27 -3 -6 0 -13 6 -17 6 -4 13 -17 16 -28 3
-18 0 -21 -23 -17 -14 3 -29 7 -33 10 -4 2 -13 -4 -19 -13 -10 -16 -11 -16 -7
4 4 19 2 21 -13 13 -10 -5 -21 -15 -23 -22 -3 -8 -6 -6 -6 5 -1 9 -5 17 -11
17 -5 0 -10 -8 -10 -17 0 -14 -2 -15 -9 -4 -5 8 -18 12 -29 9 -10 -3 -27 -1
-37 5 -13 7 -16 6 -11 -2 8 -12 -33 -9 -55 5 -8 4 -9 3 -5 -4 4 -7 1 -12 -9
-12 -9 0 -14 4 -10 9 3 6 -6 7 -22 2 -16 -4 -60 -7 -100 -6 -40 1 -78 -2 -85
-6 -10 -7 -10 -9 2 -9 13 0 13 -1 0 -10 -8 -5 -10 -10 -5 -10 6 0 6 -3 -1 -8
-13 -9 -46 -75 -33 -67 5 3 6 -1 3 -9 -3 -9 -10 -14 -14 -11 -4 3 -10 -2 -14
-10 -3 -9 7 -23 26 -37 22 -15 30 -17 26 -7 -5 12 0 14 23 11 17 -2 26 -9 22
-15 -3 -6 -1 -7 5 -3 7 4 12 14 12 22 0 8 5 12 10 9 6 -4 8 -10 5 -15 -3 -5 0
-12 6 -16 8 -4 9 -3 5 4 -4 7 -1 12 9 12 9 0 13 4 10 10 -3 5 0 7 9 4 8 -3 12
-13 9 -22 -3 -10 -1 -13 4 -7 4 6 23 16 42 22 26 9 32 10 23 1 -7 -7 -12 -17
-12 -23 0 -5 4 -4 9 3 11 18 43 22 60 8 11 -8 13 -8 8 1 -4 6 -2 15 4 19 7 4
9 3 6 -2 -3 -6 -2 -16 4 -24 7 -12 9 -12 9 4 0 15 3 16 15 6 8 -7 15 -9 15 -4
0 5 4 3 9 -4 7 -11 9 -10 14 3 5 10 3 14 -5 9 -7 -4 -8 -3 -4 5 6 9 11 9 22 0
8 -6 14 -8 14 -4 0 5 10 0 22 -11 16 -13 19 -14 10 -2 -9 11 -10 18 -2 23 5 3
10 2 10 -4 0 -6 7 -7 17 -4 10 4 14 2 9 -5 -3 -6 -2 -14 4 -17 6 -4 9 -3 8 2
-3 7 7 15 15 12 21 -6 38 -5 44 3 4 7 1 8 -7 3 -9 -5 -11 -4 -6 4 6 9 11 9 22
0 8 -6 14 -8 14 -4 0 5 10 0 22 -11 16 -13 19 -14 10 -2 -9 11 -10 18 -2 23 5
3 10 1 10 -4 0 -6 5 -11 11 -11 5 0 7 5 3 12 -5 7 -3 8 7 2 21 -13 39 -14 39
-2 0 7 5 7 13 -1 10 -8 17 -7 27 2 9 9 11 9 6 0 -4 -8 1 -11 14 -10 11 1 20 5
20 10 0 5 6 4 14 -2 10 -8 16 -9 21 -1 10 16 25 12 25 -7 0 -11 3 -14 8 -7 4
6 17 10 30 9 18 -1 22 3 22 27 0 15 -4 28 -10 28 -5 0 -10 7 -10 15 0 8 -5 15
-11 15 -6 0 -9 7 -5 15 3 9 0 15 -9 15 -13 0 -20 18 -16 43 0 4 -6 7 -15 7 -8
0 -12 4 -9 10 3 5 1 10 -5 10 -6 0 -9 4 -5 9 3 6 -4 19 -16 30 -12 11 -19 23
-16 28 3 5 -5 22 -18 37 -14 16 -22 33 -19 37 3 5 -2 9 -10 9 -10 0 -13 6 -10
15 4 8 2 15 -3 15 -9 0 -37 50 -33 59 1 2 -2 7 -7 10 -15 11 -48 54 -35 47 6
-4 12 -2 12 3 0 6 -7 11 -15 11 -8 0 -15 9 -15 19 0 10 -7 22 -16 25 -8 3 -12
10 -9 16 3 5 1 10 -5 10 -6 0 -8 5 -5 10 3 6 1 10 -5 10 -6 0 -9 4 -6 9 3 5
-1 11 -9 14 -8 4 -12 15 -10 26 2 11 0 20 -5 18 -4 -1 -7 1 -7 4 1 3 -6 13
-16 23 -9 10 -15 22 -11 27 3 5 0 8 -6 7 -7 -2 -14 5 -15 15 -2 10 -12 25 -22
34 -10 8 -12 12 -3 8 8 -4 2 6 -15 21 -22 21 -25 26 -10 21 18 -6 18 -5 -3 12
-15 13 -18 21 -10 24 8 3 6 6 -5 6 -10 1 -15 6 -12 11 3 6 1 10 -5 10 -7 0
-10 7 -7 15 4 8 1 17 -5 21 -7 5 -8 2 -4 -7 4 -8 1 -6 -8 4 -8 11 -12 26 -9
35 4 10 2 13 -5 8 -7 -4 -12 -1 -12 8 0 9 -5 16 -12 16 -6 0 -8 3 -5 7 4 3 -1
12 -11 20 -9 8 -11 11 -4 8 11 -6 11 -3 0 14 -7 12 -16 21 -19 21 -4 0 -10 11
-13 24 -4 18 -11 23 -26 19 -11 -3 -20 -14 -20 -24 0 -11 -5 -19 -11 -19 -8 0
-7 -5 1 -15 11 -13 10 -14 -5 -8 -15 5 -17 3 -12 -11 4 -10 3 -15 -3 -11 -6 4
-10 -6 -10 -22 0 -22 -2 -25 -10 -13 -5 8 -10 13 -11 10 0 -3 -2 -16 -5 -30
-2 -14 -10 -29 -18 -35 -7 -5 -11 -16 -9 -22 3 -7 -1 -13 -8 -13 -7 0 -10 -3
-6 -6 3 -3 -3 -14 -14 -25 -11 -11 -17 -25 -13 -31 5 -8 1 -9 -11 -4 -15 5
-16 4 -5 -9 7 -8 8 -15 2 -15 -5 0 -15 -13 -22 -30 -7 -16 -16 -30 -21 -30 -5
0 -6 -6 -3 -14 3 -7 -2 -16 -11 -20 -9 -3 -13 -10 -10 -16 3 -5 1 -10 -5 -10
-6 0 -8 -4 -5 -10 3 -5 1 -10 -5 -10 -6 0 -8 -5 -4 -12 5 -7 2 -9 -8 -5 -12 4
-14 1 -10 -15 3 -15 1 -19 -7 -14 -6 4 -11 4 -10 -1 4 -24 -2 -43 -13 -37 -8
5 -9 0 -6 -14 4 -12 2 -20 -2 -17 -10 6 -32 -29 -24 -38 3 -3 -4 -10 -15 -16
-12 -7 -18 -17 -15 -26 4 -8 1 -15 -6 -15 -6 0 -9 -4 -5 -9 3 -6 -3 -14 -12
-20 -10 -6 -15 -11 -11 -11 4 0 -5 -21 -20 -48 -32 -54 -46 -84 -44 -95 1 -4
-5 -7 -13 -7 -8 0 -14 -3 -14 -7 4 -22 -2 -33 -13 -27 -7 4 -10 4 -6 -1 10
-11 -11 -47 -23 -40 -5 4 -9 0 -9 -7 0 -9 -3 -9 -10 2 -9 13 -10 13 -10 0 0
-10 -3 -11 -8 -4 -7 12 -47 12 -58 1 -14 -13 -21 -7 -20 18 1 14 11 32 21 41
11 8 15 13 8 10 -8 -5 -8 0 0 18 7 13 14 23 17 21 3 -2 10 8 17 21 7 16 8 22
1 17 -7 -3 -8 -1 -4 5 4 7 14 12 21 12 9 0 12 6 9 15 -4 8 -1 15 6 15 6 0 8 5
5 10 -3 6 -2 10 3 10 16 0 33 48 19 54 -7 4 -2 4 10 2 16 -3 21 1 18 14 -2 10
3 21 11 24 8 3 14 12 14 21 0 8 6 15 13 15 9 0 9 2 0 8 -9 6 -7 12 7 22 11 8
20 23 20 33 0 12 5 17 14 14 10 -4 12 0 9 14 -3 10 0 19 6 19 6 0 11 6 11 14
0 8 7 17 16 20 8 3 12 10 9 16 -3 6 3 23 14 39 12 16 21 34 21 40 0 6 4 11 9
11 5 0 11 14 15 31 3 17 10 28 16 24 9 -6 14 8 11 28 -1 4 6 10 14 13 8 3 12
10 9 15 -3 5 0 9 6 9 6 0 9 4 5 9 -3 5 3 17 12 27 9 9 18 24 20 33 1 8 7 17
12 19 6 2 11 10 11 18 0 8 5 14 11 14 6 0 9 7 5 15 -3 9 0 15 8 15 9 0 13 9
12 24 -2 18 1 23 12 18 10 -3 13 -1 8 6 -4 7 -1 15 8 18 9 3 14 10 11 14 -3 4
2 13 10 20 8 7 15 19 15 27 0 8 10 24 23 35 15 13 18 21 9 24 -6 3 -10 10 -6
15 3 5 0 9 -6 9 -6 0 -9 4 -5 10 3 5 -3 18 -15 30 -11 11 -20 23 -21 28 -1 4
-6 6 -12 4 -7 -2 -7 1 -1 10 7 9 3 21 -17 41 -24 26 -27 27 -34 10z m-322
-1366 c3 -8 -1 -14 -8 -14 -7 0 -11 6 -8 14 3 7 6 13 8 13 2 0 5 -6 8 -13z
m-433 -1 c0 -3 -4 -8 -10 -11 -5 -3 -10 -1 -10 4 0 6 5 11 10 11 6 0 10 -2 10
-4z m300 -2 c0 -8 -19 -13 -24 -6 -3 5 1 9 9 9 8 0 15 -2 15 -3z m200 2 c0 -3
-4 -8 -10 -11 -5 -3 -10 -1 -10 4 0 6 5 11 10 11 6 0 10 -2 10 -4z"/>
<path d="M1027 139 c7 -7 15 -10 18 -7 3 3 -2 9 -12 12 -14 6 -15 5 -6 -5z"/>
</g>
</svg>
